<svg xmlns="http://www.w3.org/2000/svg" xmlns:xlink="http://www.w3.org/1999/xlink" version="1.1" id="Calque_1" x="0px" y="0px" viewBox="0 0 200 42" style="enable-background:new 0 0 200 42;" xml:space="preserve">
<g>
	<path style="fill:#8c97a3;" d="M52.2,37.9c-0.4,0-0.8,0.3-0.8,0.8c0,0.4,0.3,0.8,0.8,0.8c0.4,0,0.8-0.4,0.8-0.8   C53,38.2,52.7,37.9,52.2,37.9z"/>
	<path style="fill:#8c97a3;" d="M56.1,31h-0.8c-0.1,0-0.2,0.1-0.2,0.2v8c0,0.1,0.1,0.2,0.2,0.2h0.8c0.1,0,0.2-0.1,0.2-0.2v-8   C56.3,31.1,56.2,31,56.1,31z"/>
	<path style="fill:#8c97a3;" d="M67.6,31h-1.2c-0.1,0-0.1,0-0.2,0.1l-2.9,5.5l-2.9-5.5c0-0.1-0.1-0.1-0.2-0.1H59   c-0.1,0-0.2,0.1-0.2,0.2v8c0,0.1,0.1,0.2,0.2,0.2h0.8c0.1,0,0.2-0.1,0.2-0.2v-6.3l3.2,5.9c0.1,0.1,0.2,0.1,0.2,0l3.2-5.9v6.3   c0,0.1,0.1,0.2,0.2,0.2h0.8c0.1,0,0.2-0.1,0.2-0.2v-8C67.7,31.1,67.7,31,67.6,31z"/>
	<path style="fill:#8c97a3;" d="M79.1,31h-1.2c-0.1,0-0.1,0-0.2,0.1l-2.9,5.5l-2.9-5.5c0-0.1-0.1-0.1-0.2-0.1h-1.2   c-0.1,0-0.2,0.1-0.2,0.2v8c0,0.1,0.1,0.2,0.2,0.2h0.8c0.1,0,0.2-0.1,0.2-0.2v-6.3l3.2,5.9c0.1,0.1,0.2,0.1,0.2,0l3.2-5.9v6.3   c0,0.1,0.1,0.2,0.2,0.2h0.8c0.1,0,0.2-0.1,0.2-0.2v-8C79.2,31.1,79.2,31,79.1,31z"/>
	<path style="fill:#8c97a3;" d="M85.6,30.8c-2.4,0-4.3,1.9-4.3,4.3c0,2.5,1.9,4.3,4.3,4.3s4.3-1.9,4.3-4.3   C89.9,32.7,88,30.8,85.6,30.8z M85.6,38.3c-1.8,0-3.1-1.3-3.1-3.2c0-1.8,1.3-3.2,3.1-3.2s3.1,1.4,3.1,3.2   C88.8,37,87.4,38.3,85.6,38.3z"/>
	<path style="fill:#8c97a3;" d="M97.1,35h-4c-0.1,0-0.2,0.1-0.2,0.2v0.7c0,0.1,0.1,0.2,0.2,0.2h4c0.1,0,0.2-0.1,0.2-0.2v-0.7   C97.2,35,97.2,35,97.1,35z"/>
	<path style="fill:#8c97a3;" d="M103.7,31h-2.9c-0.1,0-0.2,0.1-0.2,0.2v8c0,0.1,0.1,0.2,0.2,0.2h2.9c2.6,0,4.3-1.7,4.3-4.2   C108,32.7,106.3,31,103.7,31z M103.7,38.2h-1.9V32h1.9c1.9,0,3.1,1.2,3.1,3C106.8,37,105.6,38.2,103.7,38.2z"/>
	<path style="fill:#8c97a3;" d="M113.3,31h-3c-0.1,0-0.2,0.1-0.2,0.2v8c0,0.1,0.1,0.2,0.2,0.2h0.8c0.1,0,0.2-0.1,0.2-0.2v-2.8h2.1   c1.8,0,2.8-1.1,2.8-2.7C116.1,32.1,115.1,31,113.3,31z M113.2,35.2h-2V32h2c1.1,0,1.8,0.6,1.8,1.6   C114.9,34.6,114.3,35.2,113.2,35.2z"/>
	<path style="fill:#8c97a3;" d="M123.4,31H118c-0.1,0-0.2,0.1-0.2,0.2v8c0,0.1,0.1,0.2,0.2,0.2h5.4c0.1,0,0.2-0.1,0.2-0.2v-0.7   c0-0.1-0.1-0.2-0.2-0.2H119v-2.5h3.8c0.1,0,0.2-0.1,0.2-0.2v-0.7c0-0.1-0.1-0.2-0.2-0.2H119V32h4.4c0.1,0,0.2-0.1,0.2-0.2v-0.7   C123.6,31.1,123.5,31,123.4,31z"/>
	<path style="fill:#8c97a3;" d="M130.6,35h-4c-0.1,0-0.2,0.1-0.2,0.2v0.7c0,0.1,0.1,0.2,0.2,0.2h4c0.1,0,0.2-0.1,0.2-0.2v-0.7   C130.7,35,130.7,35,130.6,35z"/>
	<path style="fill:#8c97a3;" d="M141.4,34.6h-4.1c-0.1,0-0.2,0.1-0.2,0.2v0.7c0,0.1,0.1,0.2,0.2,0.2h3.1v2.1   c-0.6,0.3-1.5,0.6-2.5,0.6c-1.8,0-3.1-1.4-3.1-3.2c0-1.8,1.3-3.2,3.1-3.2c1.1,0,1.9,0.4,2.5,1.2c0.1,0.1,0.1,0.1,0.2,0l0.6-0.6   c0.1-0.1,0.1-0.1,0-0.2c-0.8-1-2-1.5-3.3-1.5c-2.4,0-4.3,1.9-4.3,4.3c0,2.5,1.9,4.3,4.3,4.3c1.4,0,2.7-0.4,3.5-1   c0.1,0,0.1-0.1,0.1-0.2v-3.5C141.6,34.7,141.5,34.6,141.4,34.6z"/>
	<path style="fill:#8c97a3;" d="M149.6,31h-5.4c-0.1,0-0.2,0.1-0.2,0.2v8c0,0.1,0.1,0.2,0.2,0.2h5.4c0.1,0,0.2-0.1,0.2-0.2v-0.7   c0-0.1-0.1-0.2-0.2-0.2h-4.4v-2.5h3.8c0.1,0,0.2-0.1,0.2-0.2v-0.7c0-0.1-0.1-0.2-0.2-0.2h-3.8V32h4.4c0.1,0,0.2-0.1,0.2-0.2v-0.7   C149.8,31.1,149.7,31,149.6,31z"/>
	<path style="fill:#8c97a3;" d="M154.7,34.4c-1.6-0.2-2.2-0.5-2.2-1.3c0-0.8,0.8-1.2,1.9-1.2c0.9,0,1.6,0.3,2.2,1   c0.1,0.1,0.1,0.1,0.2,0l0.6-0.5c0.1-0.1,0.1-0.1,0-0.2c-0.8-0.9-1.9-1.3-3-1.3c-1.9,0-3,0.9-3,2.3c0,1.5,1.2,2.2,2.9,2.4   c1.6,0.2,2.3,0.5,2.3,1.5c0,1.1-1,1.4-2.1,1.4c-1,0-2-0.3-2.6-1.2c-0.1-0.1-0.1-0.1-0.2,0l-0.6,0.6c-0.1,0.1-0.1,0.1,0,0.2   c0.8,1.1,2.1,1.5,3.5,1.5c1.9,0,3.2-0.9,3.2-2.5C157.6,35.2,156.4,34.6,154.7,34.4z"/>
	<polygon style="fill:#8c97a3;" points="61.4,2.6 56.3,2.6 53.6,6 57.7,6  "/>
	<polygon style="fill:#8c97a3;" points="62.7,19.6 56,19.6 56,18 61.9,18 61.9,13.6 56,13.6 56,12.1 62.3,12.1 62.3,7.4 50.6,7.4    50.6,24.4 62.7,24.4  "/>
	<polygon style="fill:#8c97a3;" points="73.5,24.4 73.5,12.2 77.7,12.2 77.7,7.4 63.6,7.4 63.6,12.2 67.8,12.2 67.8,24.4  "/>
	<rect x="79.5" y="7.4" style="fill:#8c97a3;" width="5.8" height="17"/>
	<path style="fill:#8c97a3;" d="M96.7,24.4h10.5v-4.5l-2.7,0.2v-0.1c0.2-0.2,0.4-0.4,0.6-0.7c0.2-0.3,0.4-0.7,0.6-1.1   c0.2-0.4,0.3-0.8,0.4-1.3s0.2-0.9,0.2-1.4c0-1.2-0.2-2.4-0.7-3.5c-0.5-1.1-1.1-2-1.9-2.7c-0.8-0.8-1.8-1.3-2.9-1.8S98.4,6.9,97,6.9   c-1.3,0-2.6,0.2-3.7,0.6s-2.1,1-3,1.8c-0.8,0.8-1.5,1.7-2,2.8s-0.7,2.3-0.7,3.6c0,1.4,0.2,2.7,0.7,3.7s1.1,2,1.9,2.7   c0.8,0.7,1.8,1.3,2.9,1.7C94.2,24.2,95.4,24.4,96.7,24.4z M93.9,14.3c0.2-0.5,0.4-0.8,0.7-1.2c0.3-0.3,0.7-0.6,1.1-0.7   s0.9-0.3,1.3-0.3s0.9,0.1,1.3,0.3c0.4,0.2,0.8,0.4,1.1,0.7c0.3,0.3,0.5,0.7,0.7,1.2s0.3,1,0.3,1.5c0,0.6-0.1,1.1-0.3,1.5   s-0.4,0.9-0.7,1.2c-0.3,0.3-0.7,0.6-1.1,0.8c-0.4,0.2-0.9,0.3-1.3,0.3s-0.9-0.1-1.3-0.3c-0.4-0.2-0.8-0.4-1.1-0.8   c-0.3-0.3-0.5-0.7-0.7-1.2s-0.3-1-0.3-1.5C93.7,15.2,93.8,14.7,93.9,14.3z"/>
	<path style="fill:#8c97a3;" d="M119.1,17.1c0,0.8-0.2,1.5-0.6,1.9c-0.4,0.5-0.9,0.7-1.7,0.7s-1.3-0.2-1.7-0.7   c-0.4-0.5-0.6-1.1-0.6-1.9V7.4h-5.7v10.3c0,1,0.2,1.9,0.5,2.8c0.3,0.9,0.8,1.6,1.5,2.3c0.7,0.6,1.5,1.1,2.5,1.5   c1,0.4,2.1,0.6,3.5,0.6s2.5-0.2,3.5-0.6c1-0.4,1.8-0.9,2.5-1.5c0.7-0.6,1.2-1.4,1.5-2.3c0.3-0.9,0.5-1.8,0.5-2.8V7.4h-5.7V17.1z"/>
	<polygon style="fill:#8c97a3;" points="139.8,19.6 133.1,19.6 133.1,18 139,18 139,13.6 133.1,13.6 133.1,12.1 139.4,12.1    139.4,7.4 127.7,7.4 127.7,24.4 139.8,24.4  "/>
	<polygon style="fill:#8c97a3;" points="154.8,7.4 140.8,7.4 140.8,12.2 144.9,12.2 144.9,24.4 150.7,24.4 150.7,12.2 154.8,12.2     "/>
	<polygon style="fill:#8c97a3;" points="155.2,12.2 159.3,12.2 159.3,24.4 165.1,24.4 165.1,12.2 169.2,12.2 169.2,7.4 155.2,7.4     "/>
	<polygon style="fill:#8c97a3;" points="176.4,18 182.3,18 182.3,13.6 176.4,13.6 176.4,12.1 182.7,12.1 182.7,7.4 171,7.4    171,24.4 183.1,24.4 183.1,19.6 176.4,19.6  "/>
	<path style="fill:#8c97a3;" d="M196.1,15.1c-0.6-0.4-1.2-0.7-1.9-1s-1.3-0.5-1.9-0.7c-0.6-0.2-1-0.4-1.3-0.5   c-0.3-0.1-0.4-0.3-0.4-0.6c0-0.3,0.1-0.5,0.4-0.6c0.3-0.1,0.6-0.2,1-0.2c0.4,0,1,0.1,1.5,0.4c0.6,0.2,1,0.6,1.4,1.1l3.6-3.6   c-0.9-0.8-1.9-1.4-3.1-1.9c-1.2-0.4-2.3-0.6-3.4-0.6c-0.8,0-1.7,0.1-2.5,0.3c-0.8,0.2-1.6,0.5-2.3,1c-0.7,0.5-1.2,1.1-1.7,1.8   c-0.4,0.7-0.6,1.6-0.6,2.7c0,0.8,0.1,1.4,0.4,1.9s0.6,1,1,1.4s0.9,0.7,1.4,1s1.1,0.5,1.7,0.7c0.6,0.2,1.1,0.4,1.5,0.5   c0.4,0.1,0.7,0.3,0.9,0.4c0.2,0.1,0.4,0.2,0.5,0.3c0.1,0.1,0.1,0.2,0.1,0.4c0,0.3-0.1,0.5-0.4,0.6s-0.6,0.2-0.9,0.2   c-0.7,0-1.4-0.2-2.1-0.5s-1.2-0.7-1.6-1.2l-3.5,3.8c0.4,0.4,0.9,0.7,1.5,1s1.1,0.6,1.7,0.8c0.6,0.2,1.3,0.4,1.9,0.5   c0.7,0.1,1.3,0.2,2,0.2c0.9,0,1.7-0.1,2.5-0.4c0.8-0.2,1.6-0.6,2.2-1.1c0.7-0.5,1.2-1.1,1.6-1.9c0.4-0.8,0.6-1.7,0.6-2.7   c0-0.9-0.2-1.6-0.6-2.2C197.1,16,196.6,15.5,196.1,15.1z"/>
	<path style="fill:#8c97a3;" d="M21.7,1.2v0.3l-0.3-0.3L1.5,21l19.8,19.8l0.3-0.3v0.3c11,0,19.8-8.9,19.8-19.8   C41.5,10,32.6,1.2,21.7,1.2z"/>
</g>
</svg>